
<svg
  version="1.0"
  xmlns="http://www.w3.org/2000/svg"
  xmlns:xlink="http://www.w3.org/1999/xlink"
  width="2400"
  height="1800"
>
  
  <rect
    x="0"
    y="0"
    width="100%"
    height="100%"
    fill="#fff"
    fill-opacity="1"
  ></rect>
  <svg
    version="1.0"
    xmlns="http://www.w3.org/2000/svg"
    xmlns:xlink="http://www.w3.org/1999/xlink"
    x="0"
    y="0"
    width="2400"
    height="1800"
    viewBox="0 0 340.000000 250.000000"
    preserveAspectRatio="xMidYMid meet"
    color-interpolation-filters="sRGB"
  >
    <defs><linearGradient id="92" x1="0%" y1="0%" x2="100%" y2="0%"><stop offset="0%" stop-color="#fa71cd"/> <stop offset="100%" stop-color="#9b59b6"/></linearGradient><linearGradient id="93" x1="0%" y1="0%" x2="100%" y2="0%"><stop offset="0%" stop-color="#f9d423"/> <stop offset="100%" stop-color="#f83600"/></linearGradient><linearGradient id="94" x1="0%" y1="0%" x2="100%" y2="0%"><stop offset="0%" stop-color="#0064d2"/> <stop offset="100%" stop-color="#1cb0f6"/></linearGradient><linearGradient id="95" x1="0%" y1="0%" x2="100%" y2="0%"><stop offset="0%" stop-color="#f00978"/> <stop offset="100%" stop-color="#3f51b1"/></linearGradient><linearGradient id="96" x1="0%" y1="0%" x2="100%" y2="0%"><stop offset="0%" stop-color="#7873f5"/> <stop offset="100%" stop-color="#ec77ab"/></linearGradient><linearGradient id="97" x1="0%" y1="0%" x2="100%" y2="0%"><stop offset="0%" stop-color="#f9d423"/> <stop offset="100%" stop-color="#e14fad"/></linearGradient><linearGradient id="98" x1="0%" y1="0%" x2="100%" y2="0%"><stop offset="0%" stop-color="#009efd"/> <stop offset="100%" stop-color="#2af598"/></linearGradient><linearGradient id="99" x1="0%" y1="0%" x2="100%" y2="0%"><stop offset="0%" stop-color="#ffcc00"/> <stop offset="100%" stop-color="#00b140"/></linearGradient><linearGradient id="100" x1="0%" y1="0%" x2="100%" y2="0%"><stop offset="0%" stop-color="#d51007"/> <stop offset="100%" stop-color="#ff8177"/></linearGradient><linearGradient id="102" x1="0%" y1="0%" x2="100%" y2="0%"><stop offset="0%" stop-color="#a2b6df"/> <stop offset="100%" stop-color="#0c3483"/></linearGradient><linearGradient id="103" x1="0%" y1="0%" x2="100%" y2="0%"><stop offset="0%" stop-color="#7ac5d8"/> <stop offset="100%" stop-color="#eea2a2"/></linearGradient><linearGradient id="104" x1="0%" y1="0%" x2="100%" y2="0%"><stop offset="0%" stop-color="#00ecbc"/> <stop offset="100%" stop-color="#007adf"/></linearGradient><linearGradient id="105" x1="0%" y1="0%" x2="100%" y2="0%"><stop offset="0%" stop-color="#b88746"/> <stop offset="100%" stop-color="#fdf5a6"/></linearGradient></defs> <g fill="#2a5f55" class="icon-text-wrapper icon-svg-group iconsvg" transform="translate(77.1884765625,94.5684814453125)"><g fill="#2a5f55" class="iconsvg-imagesvg icon_container" transform="translate(0,0)"><rect fill="#2a5f55" fill-opacity="0" stroke-width="2" x="0" y="0" width="60.863037877097234" height="60.863037877097234" class="image-rect"/> <svg viewBox="0 0 60 60" x="0" y="0" width="60.863037877097234" height="60.863037877097234" class="image-svg-svg bn" style="overflow: visible;"><g hollow-target="iconBnFill" mask="url(#6804c025-bca3-45a5-a6cb-9297e55dfe06)"><g><svg viewBox="0 0 100 100" xmlns="http://www.w3.org/2000/svg" style="overflow: visible;" width="60" height="60" x="0" y="0" filtersec="colorsf1872272136" filter="url(#E7v4ydT671tVcGaEdnMoW)"><g transform="scale(1, 1) skewX(0)"><rect x="277" y="3121" width="100" height="100" rx="10" transform="translate(-277 -3121)" fill-rule="evenodd"/></g><defs><filter id="E7v4ydT671tVcGaEdnMoW"><feColorMatrix type="matrix" values="0 0 0 0 0.1640625  0 0 0 0 0.37109375  0 0 0 0 0.33203125  0 0 0 1 0"/></filter></defs></svg></g> <g filter="url(#colors8351855383)"><svg xmlns="http://www.w3.org/2000/svg" viewBox="1.2585681676864624 1.7744604349136353 586.833251953125 595.2757568359375" width="40" height="40" x="10" y="10" class="image-svg-icon"><path fill="#221e1f" d="M 571.84 113.08 Q 551.58 134.97 520.60 135.41 C 497.83 135.73 475.20 135.37 452.50 135.44 C 338.95 135.79 227.38 135.16 117.24 135.27 C 103.15 135.28 89.11 134.04 77.11 127.58 C 52.33 114.23 40.39 86.33 43.39 59.16 Q 43.95 54.08 45.48 49.89 Q 50.90 35.02 59.99 24.29 Q 65.24 18.09 75.58 11.58 C 87.28 4.22 102.07 2.04 115.50 2.10 C 168.73 2.33 221.61 2.69 274.26 2.19 Q 354.31 1.43 434.00 2.06 Q 440.53 2.12 447.06 2.17 Q 485.67 2.47 521.25 2.36 Q 535.22 2.32 547.43 7.77 Q 576.61 20.80 585.71 51.14 C 587.10 55.75 587.60 60.75 587.94 65.46 C 589.15 81.96 582.96 101.06 571.84 113.08 Z"/><path fill="#221e1f" d="M 325.67 247.12 Q 352.99 266.17 354.19 299.61 C 354.86 318.20 347.04 336.44 333.26 348.81 Q 313.46 366.57 286.25 366.53 Q 172.35 366.36 66.25 366.63 Q 53.30 366.67 39.57 360.32 Q 14.84 348.88 5.05 323.22 Q 1.34 313.50 1.26 300.72 C 1.04 267.67 26.20 241.01 57.82 236.11 C 65.04 234.99 73.71 235.26 81.75 235.28 Q 169.71 235.54 273.00 235.28 C 281.40 235.26 290.08 234.97 298.20 236.22 Q 313.39 238.55 325.67 247.12 Z"/><path fill="#221e1f" d="M 74.19 474.27 C 85.62 466.52 101.84 464.75 115.00 464.75 Q 298.27 464.75 484.75 464.84 Q 510.77 464.85 518.25 465.00 C 528.78 465.20 539.95 466.51 549.44 470.93 C 557.84 474.83 563.94 478.92 570.20 485.40 Q 585.41 501.13 587.39 522.19 C 587.76 526.18 588.40 530.77 587.92 534.70 Q 587.10 541.38 586.56 544.36 Q 583.35 562.23 570.45 576.34 Q 567.42 579.66 563.66 581.99 C 560.16 584.16 557.40 587.00 553.49 588.83 Q 545.58 592.54 536.90 595.02 Q 531.85 596.46 525.52 596.66 Q 513.03 597.06 496.75 597.05 Q 303.37 596.86 114.50 596.40 Q 108.75 596.38 102.26 596.28 Q 99.07 596.23 90.44 594.53 Q 84.50 593.35 79.63 590.79 C 60.13 580.51 46.54 564.01 43.53 541.87 Q 42.36 533.34 43.08 522.32 Q 43.61 514.10 47.44 505.12 Q 52.88 492.37 63.60 482.18 C 66.73 479.21 70.55 476.74 74.19 474.27 Z"/></svg></g></g><mask id="6804c025-bca3-45a5-a6cb-9297e55dfe06"><g fill="white"><svg viewBox="0 0 100 100" xmlns="http://www.w3.org/2000/svg" style="overflow: visible;" width="60" height="60" x="0" y="0" filtersec="colorsf1872272136"><g transform="scale(1, 1) skewX(0)"><rect x="277" y="3121" width="100" height="100" rx="10" transform="translate(-277 -3121)" fill-rule="evenodd"/></g><defs/></svg></g> <g fill="black"><svg xmlns="http://www.w3.org/2000/svg" viewBox="1.2585681676864624 1.7744604349136353 586.833251953125 595.2757568359375" width="40" height="40" x="10" y="10" class="image-svg-icon"><path d="M 571.84 113.08 Q 551.58 134.97 520.60 135.41 C 497.83 135.73 475.20 135.37 452.50 135.44 C 338.95 135.79 227.38 135.16 117.24 135.27 C 103.15 135.28 89.11 134.04 77.11 127.58 C 52.33 114.23 40.39 86.33 43.39 59.16 Q 43.95 54.08 45.48 49.89 Q 50.90 35.02 59.99 24.29 Q 65.24 18.09 75.58 11.58 C 87.28 4.22 102.07 2.04 115.50 2.10 C 168.73 2.33 221.61 2.69 274.26 2.19 Q 354.31 1.43 434.00 2.06 Q 440.53 2.12 447.06 2.17 Q 485.67 2.47 521.25 2.36 Q 535.22 2.32 547.43 7.77 Q 576.61 20.80 585.71 51.14 C 587.10 55.75 587.60 60.75 587.94 65.46 C 589.15 81.96 582.96 101.06 571.84 113.08 Z"/><path d="M 325.67 247.12 Q 352.99 266.17 354.19 299.61 C 354.86 318.20 347.04 336.44 333.26 348.81 Q 313.46 366.57 286.25 366.53 Q 172.35 366.36 66.25 366.63 Q 53.30 366.67 39.57 360.32 Q 14.84 348.88 5.05 323.22 Q 1.34 313.50 1.26 300.72 C 1.04 267.67 26.20 241.01 57.82 236.11 C 65.04 234.99 73.71 235.26 81.75 235.28 Q 169.71 235.54 273.00 235.28 C 281.40 235.26 290.08 234.97 298.20 236.22 Q 313.39 238.55 325.67 247.12 Z"/><path d="M 74.19 474.27 C 85.62 466.52 101.84 464.75 115.00 464.75 Q 298.27 464.75 484.75 464.84 Q 510.77 464.85 518.25 465.00 C 528.78 465.20 539.95 466.51 549.44 470.93 C 557.84 474.83 563.94 478.92 570.20 485.40 Q 585.41 501.13 587.39 522.19 C 587.76 526.18 588.40 530.77 587.92 534.70 Q 587.10 541.38 586.56 544.36 Q 583.35 562.23 570.45 576.34 Q 567.42 579.66 563.66 581.99 C 560.16 584.16 557.40 587.00 553.49 588.83 Q 545.58 592.54 536.90 595.02 Q 531.85 596.46 525.52 596.66 Q 513.03 597.06 496.75 597.05 Q 303.37 596.86 114.50 596.40 Q 108.75 596.38 102.26 596.28 Q 99.07 596.23 90.44 594.53 Q 84.50 593.35 79.63 590.79 C 60.13 580.51 46.54 564.01 43.53 541.87 Q 42.36 533.34 43.08 522.32 Q 43.61 514.10 47.44 505.12 Q 52.88 492.37 63.60 482.18 C 66.73 479.21 70.55 476.74 74.19 474.27 Z"/></svg></g></mask></svg> <defs><filter id="colors8351855383"><feColorMatrix type="matrix" values="0 0 0 0 0.1640625  0 0 0 0 0.37109375  0 0 0 0 0.33203125  0 0 0 1 0" class="icon-feColorMatrix "/></filter> <filter id="colorsf1872272136"><feColorMatrix type="matrix" values="0 0 0 0 0.99609375  0 0 0 0 0.99609375  0 0 0 0 0.99609375  0 0 0 1 0" class="icon-fecolormatrix"/></filter> <filter id="colorsb6559818113"><feColorMatrix type="matrix" values="0 0 0 0 0  0 0 0 0 0  0 0 0 0 0  0 0 0 1 0" class="icon-fecolormatrix"/></filter></defs></g> <g transform="translate(70.863037109375,10.92991828918457)"><g fill-rule="" stroke="#2a5f55" class="tp-name iconsvg-namesvg"><g transform="scale(0.7599999999999998)"><g><path d="M31.43-15.4C41.38-15.4 49.4-23.42 49.4-33.36 49.4-43.3 41.38-51.32 31.43-51.32L8.34-51.32C5.53-51.32 3.21-49 3.21-46.19L3.21-5.13C3.21-2.33 5.53 0 8.34 0 11.15 0 13.47-2.33 13.47-5.13L13.47-15.4ZM31.43-41.06C35.68-41.06 39.13-37.61 39.13-33.36 39.13-29.11 35.68-25.66 31.43-25.66L13.47-25.66 13.47-41.06ZM75.3-10.26L70.17-10.26C67.36-10.26 65.04-7.94 65.04-5.13 65.04-2.33 67.36 0 70.17 0L90.7 0C93.5 0 95.83-2.33 95.83-5.13 95.83-7.94 93.5-10.26 90.7-10.26L85.57-10.26 85.57-41.06 90.7-41.06C93.5-41.06 95.83-43.38 95.83-46.19 95.83-49 93.5-51.32 90.7-51.32L70.17-51.32C67.36-51.32 65.04-49 65.04-46.19 65.04-43.38 67.36-41.06 70.17-41.06L75.3-41.06ZM152.69-7.54C153.65-8.5 154.21-9.78 154.21-11.15 154.21-13.87 151.81-16.28 149.08-16.28 147.72-16.28 146.43-15.72 145.47-14.75 142.42-11.71 138.5-10.26 134.57-10.26 126.07-10.26 119.17-17.16 119.17-25.66 119.17-34.16 126.07-41.06 134.57-41.06 138.5-41.06 142.5-39.61 145.47-36.57 146.43-35.52 147.72-35.04 149.08-35.04 151.81-35.04 154.21-37.37 154.21-40.17 154.21-41.46 153.65-42.82 152.69-43.78 147.64-48.75 141.14-51.32 134.57-51.32 120.37-51.32 108.91-39.85 108.91-25.66 108.91-11.47 120.37 0 134.57 0 141.14 0 147.64-2.49 152.69-7.54Z" transform="translate(-3.2100000381469727, 51.31999969482422)" stroke-width="1.5" stroke-linejoin="round"/></g> </g></g> </g></g><defs v-gra="od"/>
  </svg>
</svg>


